# xmcd
#
# Track frame offsets: 
#        150
#        17467
#        34198
#        44824
#        65734
#        78760
#        88711
#        114955
#        126890
#        143644
#        154632
#        171395
#        182426
#        193357
#
# Disc length: 2729 seconds
#
# Revision: 2
# Processed by: cddbd v1.5.2PL0 Copyright (c) Steve Scherf et al.
# Submitted via: ExactAudioCopy v0.99pb4
#
DISCID=ba0aa70e
DTITLE=Mississippi Fred McDowell - Levee Camp Blues
DYEAR=1998
DGENRE=
TTITLE0=Levee Camp Blues
TTITLE1=Let Me Lay Down In Your Cool Iron Bed
TTITLE2=My Baby Don't Treat Me Like Humankind
TTITLE3=My Baby Has Eyes Like An Eagle (Take 2)
TTITLE4=Jim Steam Killed Lula
TTITLE5=Pea Vine Special
TTITLE6=Dark Clouds A-Rising
TTITLE7=My Baby Has Eyes Like An Eagle (Take 1)
TTITLE8=Will Me Your Gold Watch and Chain
TTITLE9=Won't Be Worried long
TTITLE10=Down On Dankin's Farm
TTITLE11=Bye And Bye, Goin' To See The King
TTITLE12=Goin Over The Hill
TTITLE13=When I lay My Burden Down
EXTD=
EXTT0=
EXTT1=
EXTT2=
EXTT3=
EXTT4=
EXTT5=
EXTT6=
EXTT7=
EXTT8=
EXTT9=
EXTT10=
EXTT11=
EXTT12=
EXTT13=
PLAYORDER=
